<svg width="50" height="50" viewBox="0 0 50 50" fill="none" xmlns="../../../../www.w3.org/2000/svg.html">
<path d="M8.33334 12.4999C8.33334 10.2083 10.2083 8.33325 12.5 8.33325C14.7917 8.33325 16.6667 10.2083 16.6667 12.4999C16.6667 14.7916 14.7917 16.6666 12.5 16.6666C10.2083 16.6666 8.33334 14.7916 8.33334 12.4999ZM12.5 29.1666C14.7917 29.1666 16.6667 27.2916 16.6667 24.9999C16.6667 22.7083 14.7917 20.8333 12.5 20.8333C10.2083 20.8333 8.33334 22.7083 8.33334 24.9999C8.33334 27.2916 10.2083 29.1666 12.5 29.1666ZM25 16.6666C27.2917 16.6666 29.1667 14.7916 29.1667 12.4999C29.1667 10.2083 27.2917 8.33325 25 8.33325C22.7083 8.33325 20.8333 10.2083 20.8333 12.4999C20.8333 14.7916 22.7083 16.6666 25 16.6666ZM37.5 20.8333C35.2083 20.8333 33.3333 22.7083 33.3333 24.9999C33.3333 27.2916 35.2083 29.1666 37.5 29.1666C39.7917 29.1666 41.6667 27.2916 41.6667 24.9999C41.6667 22.7083 39.7917 20.8333 37.5 20.8333ZM37.4583 33.3332C35.9167 33.3332 34.6042 34.1666 33.875 35.4166H28.5833C27.875 34.1666 26.5417 33.3332 25 33.3332C23.4583 33.3332 22.1458 34.1666 21.4167 35.4166H17.5208L23.9167 29.0208C24.2708 29.1041 24.625 29.1666 25 29.1666C27.2917 29.1666 29.1667 27.2916 29.1667 24.9999C29.1667 24.6249 29.1042 24.2707 29.0208 23.9374L36.4375 16.5208C36.7708 16.6041 37.125 16.6666 37.5 16.6666C39.7917 16.6666 41.6667 14.7916 41.6667 12.4999C41.6667 10.2083 39.7917 8.33325 37.5 8.33325C35.2083 8.33325 33.3333 10.2083 33.3333 12.4999C33.3333 12.8749 33.3958 13.2291 33.4792 13.5624L26.0625 20.9791C25.7292 20.8958 25.375 20.8333 25 20.8333C22.7083 20.8333 20.8333 22.7083 20.8333 24.9999C20.8333 25.3749 20.8958 25.7291 20.9792 26.0624L13.5625 33.4791C13.2292 33.3957 12.875 33.3332 12.5 33.3332C10.2083 33.3332 8.33334 35.2082 8.33334 37.4999C8.33334 39.7916 10.2083 41.6666 12.5 41.6666C14.0417 41.6666 15.3542 40.8332 16.0833 39.5832H21.4375C22.1458 40.8332 23.4792 41.6666 25.0208 41.6666C26.5625 41.6666 27.875 40.8332 28.6042 39.5832H33.9167C34.625 40.8332 35.9583 41.6666 37.5 41.6666C39.7917 41.6666 41.6667 39.7916 41.6667 37.4999C41.625 35.2082 39.75 33.3332 37.4583 33.3332Z" fill="white"/>
</svg>
