<svg width="50" height="50" viewBox="0 0 50 50" fill="none" xmlns="../../../../www.w3.org/2000/svg.html">
<path d="M32.9583 15.0417L30.875 15.875C30.4375 15.5417 29.9792 15.2708 29.4792 15.0625L29.1667 12.8542C29.125 12.6458 28.9583 12.5 28.75 12.5H25.4167C25.2083 12.5 25.0417 12.6458 25.0208 12.8542L24.7083 15.0625C24.2083 15.2708 23.7292 15.5417 23.3125 15.875L21.2292 15.0417C21.0417 14.9792 20.8125 15.0417 20.7292 15.2292L19.0625 18.1042C18.9583 18.2917 19 18.5208 19.1667 18.6458L20.9375 20.0208C20.875 20.2708 20.8333 20.5625 20.8333 20.8333C20.8333 21.1042 20.8542 21.375 20.8958 21.6458L19.1458 23.0208C18.9792 23.1458 18.9375 23.375 19.0417 23.5417L20.7083 26.4375C20.8125 26.625 21.0208 26.6875 21.2292 26.625L23.2917 25.7917C23.7292 26.125 24.1875 26.3958 24.7083 26.6042L25 28.8125C25.0417 29.0208 25.2083 29.1667 25.4167 29.1667H28.75C28.9583 29.1667 29.125 29.0208 29.1667 28.8125L29.4792 26.6042C29.9792 26.3958 30.4583 26.125 30.875 25.7917L32.9375 26.625C33.125 26.7083 33.3541 26.625 33.4375 26.4375L35.1042 23.5417C35.2083 23.3542 35.1666 23.1458 35 23.0208L33.2708 21.6458C33.3125 21.375 33.3333 21.1042 33.3333 20.8333C33.3333 20.5417 33.3125 20.2708 33.2708 20.0208L35.0417 18.6458C35.2083 18.5208 35.25 18.2917 35.1458 18.1042L33.4792 15.2292C33.375 15.0417 33.1458 14.9792 32.9583 15.0417ZM27.0833 23.8125C25.4375 23.8125 24.1042 22.4792 24.1042 20.8333C24.1042 19.1875 25.4375 17.8542 27.0833 17.8542C28.7292 17.8542 30.0625 19.1875 30.0625 20.8333C30.0625 22.4792 28.7292 23.8125 27.0833 23.8125Z" fill="white"/>
<path d="M41.5417 18.875C40.6458 12.0625 34.8125 6.66667 27.9375 6.27083C27.6458 6.25 27.375 6.25 27.0833 6.25C19.7292 6.25 13.6875 11.6875 12.6667 18.75L8.64583 26C7.79166 27.375 8.79166 29.1667 10.4167 29.1667H12.5V33.3333C12.5 35.625 14.375 37.5 16.6667 37.5H18.75V43.75H33.3333V34C38.7917 31.3958 42.3958 25.5 41.5417 18.875ZM31.0208 30.4792L29.1667 31.3542V39.5833H22.9167V33.3333H16.6667V25H13.9583L16.7292 20.1458C17.1042 14.7083 21.5625 10.4167 27.0833 10.4167C32.8333 10.4167 37.5 15.0833 37.5 20.8333C37.5 25.1875 34.8125 28.9167 31.0208 30.4792Z" fill="white"/>
</svg>
