<?xml version="1.0" encoding="utf-8"?>
<!-- Generator: Adobe Illustrator 26.0.1, SVG Export Plug-In . SVG Version: 6.00 Build 0)  -->
<svg version="1.1" id="Layer_1" xmlns="http://www.w3.org/2000/svg" xmlns:xlink="http://www.w3.org/1999/xlink" x="0px" y="0px"
	 viewBox="0 0 114.5 92.2" style="enable-background:new 0 0 114.5 92.2;" xml:space="preserve">
<style type="text/css">
	.st0{fill:none;stroke:#000000;stroke-width:3;stroke-miterlimit:10;}
	.st1{fill:none;stroke:#000000;stroke-width:3;stroke-linecap:round;stroke-linejoin:bevel;}
</style>
<g id="Layer_2_00000113351622731089602290000012803429381643456384_">
	<g id="Layer_1-2">
		<polyline class="st0" points="30.4,47.7 30.4,1.5 48.3,1.5 113,1.5 113,66.5 106.6,66.5 		"/>
		<line class="st0" x1="113" y1="19.5" x2="30.4" y2="19.5"/>
		<line class="st0" x1="40.3" y1="12.9" x2="40.3" y2="8.3"/>
		<line class="st0" x1="50.2" y1="12.9" x2="50.2" y2="8.3"/>
		<line class="st0" x1="60.1" y1="12.9" x2="60.1" y2="8.3"/>
		<path class="st0" d="M106.6,66.5L88,79.9c-20,14.3-46.8,14.3-66.8,0L2.6,66.5l18.6-13.4c20-14.3,46.8-14.3,66.8,0L106.6,66.5z"/>
		<circle class="st0" cx="54.6" cy="66.5" r="22.6"/>
		<path class="st1" d="M54.6,54.7c-0.3,0-0.7,0-1,0c2.7,3,2.4,7.7-0.6,10.4c-2.9,2.6-7.3,2.5-10.1-0.3c-0.1,0.5-0.1,1.1-0.1,1.7
			c0,6.5,5.2,11.8,11.8,11.9c6.5,0,11.8-5.2,11.9-11.8S61.2,54.7,54.6,54.7C54.6,54.7,54.6,54.7,54.6,54.7z"/>
	</g>
</g>
</svg>
