<?xml version="1.0" encoding="utf-8"?>
<!-- Generator: Adobe Illustrator 26.0.1, SVG Export Plug-In . SVG Version: 6.00 Build 0)  -->
<svg version="1.1" id="Layer_1" xmlns="http://www.w3.org/2000/svg" xmlns:xlink="http://www.w3.org/1999/xlink" x="0px" y="0px"
	 viewBox="0 0 98.1 101.2" style="enable-background:new 0 0 98.1 101.2;" xml:space="preserve">
<style type="text/css">
	.st0{fill:none;stroke:#000000;stroke-width:3;stroke-miterlimit:10;}
</style>
<g id="Layer_2_00000070808426119892359940000011281629217647909008_">
	<g id="Layer_1-2">
		<path class="st0" d="M29.5,9.5h67.1v40.2c0,20.6-9.5,25.5-25.8,38.2L56.4,99.3L42,88C25.7,75.2,16.2,70.4,16.2,49.8V32.1"/>
		<polyline class="st0" points="32.2,80.5 32.2,37.6 96.6,37.6 		"/>
		<line class="st0" x1="33" y1="59" x2="95.8" y2="59"/>
		<line class="st0" x1="43.8" y1="46.1" x2="43.8" y2="51"/>
		<line class="st0" x1="52.6" y1="46.1" x2="52.6" y2="51"/>
		<line class="st0" x1="61.3" y1="46.1" x2="61.3" y2="51"/>
		<path class="st0" d="M27.4,18.1c0.1-0.5,0.1-1,0.1-1.5c0-0.5,0-1-0.1-1.5l3.2-2.5c0.3-0.2,0.4-0.7,0.2-1l-3-5.2
			c-0.2-0.3-0.6-0.5-0.9-0.3l-3.8,1.5c-0.8-0.6-1.6-1.1-2.5-1.5l-0.6-4c-0.1-0.4-0.4-0.6-0.8-0.6h-6c-0.4,0-0.7,0.3-0.7,0.6l-0.6,4
			C11,6.5,10.1,7,9.3,7.6L5.6,6.1C5.2,6,4.8,6.1,4.6,6.4l-3,5.2c-0.2,0.3-0.1,0.8,0.2,1L5,15.1c-0.2,1-0.2,2,0,2.9l-3.2,2.5
			c-0.3,0.2-0.4,0.6-0.2,1l3,5.2c0.2,0.3,0.6,0.5,0.9,0.4l3.8-1.5c0.8,0.6,1.7,1.1,2.6,1.4l0.6,4c0.1,0.4,0.4,0.6,0.8,0.6h6
			c0.4,0,0.7-0.3,0.7-0.6l0.6-4c0.9-0.4,1.8-0.8,2.5-1.4l3.8,1.5c0.4,0.1,0.7,0,0.9-0.4l3-5.2c0.2-0.3,0.1-0.7-0.2-1L27.4,18.1z
			 M16.2,17.7c-0.6,0-1.1-0.5-1.1-1.1c0-0.6,0.5-1.1,1.1-1.1c0.6,0,1.1,0.5,1.1,1.1c0,0,0,0,0,0C17.3,17.2,16.8,17.7,16.2,17.7
			C16.2,17.7,16.2,17.7,16.2,17.7z"/>
	</g>
</g>
</svg>
