<svg xmlns="http://www.w3.org/2000/svg" xmlns:xlink="http://www.w3.org/1999/xlink" viewBox="0 0 92.63 98.99"><defs><style>.cls-1{fill:url(#linear-gradient);}.cls-2{fill:#fff;}</style><linearGradient id="linear-gradient" x1="46.32" x2="46.32" y2="98.99" gradientUnits="userSpaceOnUse"><stop offset="0" stop-color="#f922a3"/><stop offset="1" stop-color="#1832fe"/></linearGradient></defs><g id="Layer_2" data-name="Layer 2"><g id="Layer_1-2" data-name="Layer 1"><path class="cls-1" d="M84.12,79.08V70.47H48.53V60.16H84.12V0H8.52V60.16h37V70.47h-37V79H0V99H20V79H11.52V73.47h34V79H41.25L35.46,89l5.79,10H52.81l5.78-10L52.81,79H48.53V73.47H81.12v5.61a10,10,0,1,0,3,0ZM11.52,18.79H41.6v-3H11.52V3h69.6V15.79H52.45v3H81.12V57.16H11.52ZM17,96H3V82H17Zm38.1-7-4.05,7H43l-4-7,4-7h8.1Zm27.49,7a7,7,0,1,1,7-7A7,7,0,0,1,82.62,96Z"/><rect class="cls-2" x="17.2" y="7.51" width="3" height="4.06"/><rect class="cls-2" x="25.91" y="7.51" width="3" height="4.06"/><rect class="cls-2" x="34.63" y="7.51" width="3" height="4.06"/><path class="cls-2" d="M66.29,50.52H27.77a4.09,4.09,0,0,1-3.54-6.13L43.49,11A4,4,0,0,1,47,9h0a4,4,0,0,1,3.54,2L69.83,44.39a4.09,4.09,0,0,1-3.54,6.13ZM47,12a1.07,1.07,0,0,0-.94.55L26.82,45.89a1.09,1.09,0,0,0,.95,1.63H66.29a1.06,1.06,0,0,0,.94-.54,1,1,0,0,0,0-1.09L48,12.53A1.07,1.07,0,0,0,47,12Z"/><rect class="cls-2" x="45.53" y="20.86" width="3" height="11.44"/><rect class="cls-2" x="45.53" y="38.02" width="3" height="4.95"/></g></g></svg>