<svg xmlns="http://www.w3.org/2000/svg" xmlns:xlink="http://www.w3.org/1999/xlink" viewBox="0 0 110.05 100.09"><defs><style>.cls-1{fill:#fff;}.cls-2{fill:url(#linear-gradient);}</style><linearGradient id="linear-gradient" x1="55.02" x2="55.02" y2="100.09" gradientUnits="userSpaceOnUse"><stop offset="0" stop-color="#f922a3"/><stop offset="1" stop-color="#1832fe"/></linearGradient></defs><g id="Layer_2" data-name="Layer 2"><g id="Layer_1-2" data-name="Layer 1"><path class="cls-1" d="M41.9,57.73l-4.71-3.68a19,19,0,0,1-7.32-15V33.27H53.92V39a18.94,18.94,0,0,1-7.32,15Zm-9-21.46V39A16,16,0,0,0,39,51.69l2.86,2.23,2.85-2.23A16,16,0,0,0,50.92,39V36.27Z"/><path class="cls-2" d="M109.82,64.08l-6.23-18.59V28.72A28.71,28.71,0,0,0,74.91,0h-6A28.69,28.69,0,0,0,43.57,15.28l-.29.64a28.12,28.12,0,0,0-4.39.13,26.31,26.31,0,0,0-23.17,23.6,26,26,0,0,0,6.81,20.28A17.14,17.14,0,0,1,27,71.54v3.17h3.9V92.23h9.29v7.86h3V92.23h9.62V74.71h2.53V73a17.81,17.81,0,0,1,5.3-12.44A26.31,26.31,0,0,0,46.45,16.27,25.66,25.66,0,0,1,68.91,3h6a25.71,25.71,0,0,1,25.68,25.68V46L107,65a1.36,1.36,0,0,1-.19,1.26,1.39,1.39,0,0,1-1.14.58H96.79V82H83.94v18.09h3V85H99.79V69.88h5.85a4.34,4.34,0,0,0,3.58-1.83A4.39,4.39,0,0,0,109.82,64.08Zm-60,25.15H33.94V74.71H49.85ZM65.19,42.18a23.14,23.14,0,0,1-6.65,16.28,21,21,0,0,0-6.12,13.25H30v-.17a20.13,20.13,0,0,0-5.3-13.64,23,23,0,0,1-6-18,23.29,23.29,0,0,1,46.48,2.25ZM17.27,19.52l-6.45-6.46,2.12-2.12,6.45,6.46ZM70.53,72.77l-6.46-6.46,2.12-2.12,6.46,6.46ZM63.78,19.52,61.66,17.4l6.46-6.46,2.12,2.12ZM12,71.3,9.87,69.18l6.46-6.46,2.12,2.13ZM43.4,9.55h-3V0h3ZM9.55,43.37H0v-3H9.55Zm74,0H74v-3H83.5Z"/></g></g></svg>