<svg xmlns="http://www.w3.org/2000/svg" xmlns:xlink="http://www.w3.org/1999/xlink" viewBox="0 0 106.17 100.88"><defs><style>.cls-1{fill:url(#linear-gradient);}.cls-2{fill:#fff;}</style><linearGradient id="linear-gradient" x1="53.09" x2="53.09" y2="100.88" gradientUnits="userSpaceOnUse"><stop offset="0" stop-color="#f922a3"/><stop offset="1" stop-color="#1832fe"/></linearGradient></defs><g id="Layer_2" data-name="Layer 2"><g id="Layer_1-2" data-name="Layer 1"><path class="cls-1" d="M53.09,0A53.09,53.09,0,0,0,25,98.13l3.54,2.07L44.88,90,43.3,87.47,28.48,96.7l-1.95-1.14a50.08,50.08,0,1,1,51.22,1.13l-1.5.79c-4.62-2.43-30.75-16.27-36.4-21.12C33.22,70.68,30,64.59,30,57.75V38.27H72.81V57.75a22.49,22.49,0,0,1-9.72,18.52l-5.52,3.8,1.7,2.47,5.52-3.8a25.49,25.49,0,0,0,11-21V35.27H64.07V26.65a7.85,7.85,0,0,0-7.84-7.84H46.58a7.85,7.85,0,0,0-7.84,7.84v8.62H27V57.75c0,7.77,3.56,14.6,10.89,20.89,6.44,5.51,36.4,21.2,37.67,21.87l.7.37,2.93-1.56A53.09,53.09,0,0,0,53.09,0ZM41.74,26.65a4.84,4.84,0,0,1,4.84-4.84h9.65a4.84,4.84,0,0,1,4.84,4.84v8.62H41.74Z"/><rect class="cls-2" x="49.91" y="48.71" width="3" height="12.83"/></g></g></svg>