<svg width="22" height="23" viewBox="0 0 22 23" fill="none" xmlns="../../../../www.w3.org/2000/svg.html">
<path fill-rule="evenodd" clip-rule="evenodd" d="M11.4139 0.922974C8.54473 0.922974 8.18497 0.935135 7.05815 0.986549C5.93368 1.03784 5.16571 1.21644 4.49372 1.47762C3.79901 1.74756 3.20986 2.1088 2.6225 2.69611C2.03519 3.28346 1.67395 3.87262 1.40401 4.56733C1.14283 5.23931 0.964228 6.00729 0.91294 7.13176C0.861527 8.25857 0.849365 8.61834 0.849365 11.4875C0.849365 14.3566 0.861527 14.7164 0.91294 15.8432C0.964228 16.9677 1.14283 17.7357 1.40401 18.4077C1.67395 19.1024 2.03519 19.6915 2.6225 20.2789C3.20986 20.8662 3.79901 21.2274 4.49372 21.4974C5.16571 21.7585 5.93368 21.9372 7.05815 21.9884C8.18497 22.0399 8.54473 22.052 11.4139 22.052C14.283 22.052 14.6428 22.0399 15.7696 21.9884C16.8941 21.9372 17.6621 21.7585 18.3341 21.4974C19.0288 21.2274 19.6179 20.8662 20.2053 20.2789C20.7926 19.6915 21.1538 19.1024 21.4238 18.4077C21.6849 17.7357 21.8635 16.9677 21.9148 15.8432C21.9662 14.7164 21.9784 14.3566 21.9784 11.4875C21.9784 8.61834 21.9662 8.25857 21.9148 7.13176C21.8635 6.00729 21.6849 5.23931 21.4238 4.56733C21.1538 3.87262 20.7926 3.28346 20.2053 2.69611C19.6179 2.1088 19.0288 1.74756 18.3341 1.47762C17.6621 1.21644 16.8941 1.03784 15.7696 0.986549C14.6428 0.935135 14.283 0.922974 11.4139 0.922974ZM11.4141 2.8265C14.235 2.8265 14.5691 2.83728 15.6831 2.8881C16.7131 2.93507 17.2725 3.10718 17.6448 3.25186C18.1379 3.4435 18.4898 3.67243 18.8595 4.04214C19.2292 4.4118 19.4581 4.76373 19.6498 5.25686C19.7944 5.62912 19.9665 6.1885 20.0135 7.21853C20.0643 8.33252 20.0751 8.66667 20.0751 11.4875C20.0751 14.3083 20.0643 14.6425 20.0135 15.7565C19.9665 16.7865 19.7944 17.3459 19.6498 17.7182C19.4581 18.2113 19.2292 18.5632 18.8595 18.9329C18.4898 19.3026 18.1379 19.5315 17.6448 19.7232C17.2725 19.8678 16.7131 20.0399 15.6831 20.0869C14.5693 20.1377 14.2352 20.1485 11.4141 20.1485C8.59306 20.1485 8.259 20.1377 7.14514 20.0869C6.11511 20.0399 5.55572 19.8678 5.18346 19.7232C4.69033 19.5315 4.33841 19.3026 3.96874 18.9329C3.59908 18.5632 3.37011 18.2113 3.17846 17.7182C3.03378 17.3459 2.86167 16.7865 2.81471 15.7565C2.76388 14.6425 2.7531 14.3083 2.7531 11.4875C2.7531 8.66667 2.76388 8.33252 2.81471 7.21853C2.86167 6.1885 3.03378 5.62912 3.17846 5.25686C3.37011 4.76373 3.59903 4.4118 3.96874 4.04214C4.33841 3.67243 4.69033 3.4435 5.18346 3.25186C5.55572 3.10718 6.11511 2.93507 7.14514 2.8881C8.25912 2.83728 8.59327 2.8265 11.4141 2.8265ZM11.4136 15.0088C9.46873 15.0088 7.89211 13.4322 7.89211 11.4873C7.89211 9.54239 9.46873 7.96576 11.4136 7.96576C13.3585 7.96576 14.9351 9.54239 14.9351 11.4873C14.9351 13.4322 13.3585 15.0088 11.4136 15.0088ZM11.4136 6.06279C8.41742 6.06279 5.98858 8.49163 5.98858 11.4878C5.98858 14.484 8.41742 16.9128 11.4136 16.9128C14.4098 16.9128 16.8386 14.484 16.8386 11.4878C16.8386 8.49163 14.4098 6.06279 11.4136 6.06279ZM17.0532 7.11598C17.7534 7.11598 18.321 6.54842 18.321 5.84826C18.321 5.14809 17.7534 4.58049 17.0532 4.58049C16.3531 4.58049 15.7855 5.14809 15.7855 5.84826C15.7855 6.54842 16.3531 7.11598 17.0532 7.11598Z" fill="white"/>
</svg>
