<svg width="18" height="19" viewBox="0 0 18 19" fill="none" xmlns="../../../../www.w3.org/2000/svg.html">
<path fill-rule="evenodd" clip-rule="evenodd" d="M4.19388 18.09V7.05396H0.515201V18.09H4.19388ZM2.3233 4.60165C2.86367 4.60165 3.31051 4.42499 3.66383 4.07167C4.01715 3.71835 4.19381 3.29229 4.19381 2.79349C4.19381 2.25311 4.02754 1.80627 3.69501 1.45295C3.36247 1.09963 2.92602 0.922974 2.38565 0.922974C1.84528 0.922974 1.39844 1.09963 1.04512 1.45295C0.691794 1.80627 0.515137 2.25311 0.515137 2.79349C0.515137 3.29229 0.681403 3.71835 1.01394 4.07167C1.34648 4.42499 1.78293 4.60165 2.3233 4.60165ZM17.6822 18.09V11.7837C17.6822 10.2281 17.299 9.05095 16.5326 8.25215C15.7662 7.45335 14.7699 7.05396 13.5436 7.05396C12.2298 7.05396 11.135 7.64254 10.2591 8.81972V7.30621H6.64613V18.09H10.2591V11.9729C10.2591 11.5524 10.3029 11.2582 10.3905 11.09C10.7408 10.2491 11.354 9.82873 12.2298 9.82873C13.4561 9.82873 14.0692 10.6065 14.0692 12.1621V18.09H17.6822Z" fill="white"/>
</svg>
