<svg width="19" height="16" viewBox="0 0 19 16" fill="none" xmlns="../../../../www.w3.org/2000/svg.html">
<path fill-rule="evenodd" clip-rule="evenodd" d="M18.7069 2.65601C18.2369 3.37498 17.6102 4.01691 16.8268 4.58182V5.04401C16.8268 7.74014 15.8411 10.1859 13.8696 12.3813C11.8981 14.5767 9.28032 15.6744 6.01623 15.6744C3.92721 15.6744 1.9949 15.1095 0.219238 13.9797C0.637041 14.0311 0.937333 14.0568 1.12012 14.0568C2.86967 14.0568 4.43641 13.5175 5.82038 12.4391C5.01089 12.4134 4.27975 12.1631 3.62693 11.688C2.97411 11.213 2.5302 10.6032 2.29519 9.85851C2.60854 9.90987 2.84355 9.93554 3.00023 9.93554C3.26135 9.93554 3.60081 9.88419 4.01862 9.78148C3.1569 9.60174 2.43228 9.17165 1.84475 8.49119C1.25721 7.81074 0.963446 7.02117 0.963446 6.12246V6.08394C1.53793 6.39207 2.1124 6.54613 2.68688 6.54613C1.56403 5.82716 1.00262 4.78724 1.00262 3.42634C1.00262 2.7844 1.17235 2.16815 1.51181 1.57757C3.52249 4.01693 6.12066 5.31362 9.30641 5.46768C9.25419 5.28794 9.22807 5.00549 9.22807 4.62033C9.22807 3.56756 9.59365 2.6817 10.3248 1.96273C11.056 1.24376 11.9568 0.884277 13.0275 0.884277C14.0981 0.884277 15.012 1.28227 15.7693 2.07827C16.5527 1.94989 17.3621 1.64176 18.1977 1.15389C17.9366 2.0526 17.3752 2.74588 16.5135 3.23376C17.323 3.15672 18.0541 2.96414 18.7069 2.65601Z" fill="white"/>
</svg>
